<?xml version="1.0" encoding="utf-8"?>
<svg xmlns="http://www.w3.org/2000/svg" xmlns:xlink="http://www.w3.org/1999/xlink" style="margin: auto; background: rgb(241, 242, 243); display: block; shape-rendering: auto;" width="200px" height="200px" viewBox="0 0 100 100" preserveAspectRatio="xMidYMid">
<g transform="rotate(0 50 50)">
  <rect x="48.5" y="35" rx="0.99" ry="0.99" width="3" height="2" fill="#4658ac">
    <animate attributeName="opacity" values="1;0" keyTimes="0;1" dur="0.4291845493562232s" begin="-0.40393839939409243s" repeatCount="indefinite"></animate>
  </rect>
</g><g transform="rotate(21.176470588235293 50 50)">
  <rect x="48.5" y="35" rx="0.99" ry="0.99" width="3" height="2" fill="#4658ac">
    <animate attributeName="opacity" values="1;0" keyTimes="0;1" dur="0.4291845493562232s" begin="-0.3786922494319616s" repeatCount="indefinite"></animate>
  </rect>
</g><g transform="rotate(42.35294117647059 50 50)">
  <rect x="48.5" y="35" rx="0.99" ry="0.99" width="3" height="2" fill="#4658ac">
    <animate attributeName="opacity" values="1;0" keyTimes="0;1" dur="0.4291845493562232s" begin="-0.35344609946983085s" repeatCount="indefinite"></animate>
  </rect>
</g><g transform="rotate(63.529411764705884 50 50)">
  <rect x="48.5" y="35" rx="0.99" ry="0.99" width="3" height="2" fill="#4658ac">
    <animate attributeName="opacity" values="1;0" keyTimes="0;1" dur="0.4291845493562232s" begin="-0.3281999495077001s" repeatCount="indefinite"></animate>
  </rect>
</g><g transform="rotate(84.70588235294117 50 50)">
  <rect x="48.5" y="35" rx="0.99" ry="0.99" width="3" height="2" fill="#4658ac">
    <animate attributeName="opacity" values="1;0" keyTimes="0;1" dur="0.4291845493562232s" begin="-0.3029537995455693s" repeatCount="indefinite"></animate>
  </rect>
</g><g transform="rotate(105.88235294117646 50 50)">
  <rect x="48.5" y="35" rx="0.99" ry="0.99" width="3" height="2" fill="#4658ac">
    <animate attributeName="opacity" values="1;0" keyTimes="0;1" dur="0.4291845493562232s" begin="-0.2777076495834385s" repeatCount="indefinite"></animate>
  </rect>
</g><g transform="rotate(127.05882352941177 50 50)">
  <rect x="48.5" y="35" rx="0.99" ry="0.99" width="3" height="2" fill="#4658ac">
    <animate attributeName="opacity" values="1;0" keyTimes="0;1" dur="0.4291845493562232s" begin="-0.25246149962130776s" repeatCount="indefinite"></animate>
  </rect>
</g><g transform="rotate(148.23529411764707 50 50)">
  <rect x="48.5" y="35" rx="0.99" ry="0.99" width="3" height="2" fill="#4658ac">
    <animate attributeName="opacity" values="1;0" keyTimes="0;1" dur="0.4291845493562232s" begin="-0.22721534965917697s" repeatCount="indefinite"></animate>
  </rect>
</g><g transform="rotate(169.41176470588235 50 50)">
  <rect x="48.5" y="35" rx="0.99" ry="0.99" width="3" height="2" fill="#4658ac">
    <animate attributeName="opacity" values="1;0" keyTimes="0;1" dur="0.4291845493562232s" begin="-0.20196919969704621s" repeatCount="indefinite"></animate>
  </rect>
</g><g transform="rotate(190.58823529411765 50 50)">
  <rect x="48.5" y="35" rx="0.99" ry="0.99" width="3" height="2" fill="#4658ac">
    <animate attributeName="opacity" values="1;0" keyTimes="0;1" dur="0.4291845493562232s" begin="-0.17672304973491543s" repeatCount="indefinite"></animate>
  </rect>
</g><g transform="rotate(211.76470588235293 50 50)">
  <rect x="48.5" y="35" rx="0.99" ry="0.99" width="3" height="2" fill="#4658ac">
    <animate attributeName="opacity" values="1;0" keyTimes="0;1" dur="0.4291845493562232s" begin="-0.15147689977278464s" repeatCount="indefinite"></animate>
  </rect>
</g><g transform="rotate(232.94117647058823 50 50)">
  <rect x="48.5" y="35" rx="0.99" ry="0.99" width="3" height="2" fill="#4658ac">
    <animate attributeName="opacity" values="1;0" keyTimes="0;1" dur="0.4291845493562232s" begin="-0.12623074981065388s" repeatCount="indefinite"></animate>
  </rect>
</g><g transform="rotate(254.11764705882354 50 50)">
  <rect x="48.5" y="35" rx="0.99" ry="0.99" width="3" height="2" fill="#4658ac">
    <animate attributeName="opacity" values="1;0" keyTimes="0;1" dur="0.4291845493562232s" begin="-0.10098459984852311s" repeatCount="indefinite"></animate>
  </rect>
</g><g transform="rotate(275.29411764705884 50 50)">
  <rect x="48.5" y="35" rx="0.99" ry="0.99" width="3" height="2" fill="#4658ac">
    <animate attributeName="opacity" values="1;0" keyTimes="0;1" dur="0.4291845493562232s" begin="-0.07573844988639232s" repeatCount="indefinite"></animate>
  </rect>
</g><g transform="rotate(296.47058823529414 50 50)">
  <rect x="48.5" y="35" rx="0.99" ry="0.99" width="3" height="2" fill="#4658ac">
    <animate attributeName="opacity" values="1;0" keyTimes="0;1" dur="0.4291845493562232s" begin="-0.050492299924261554s" repeatCount="indefinite"></animate>
  </rect>
</g><g transform="rotate(317.6470588235294 50 50)">
  <rect x="48.5" y="35" rx="0.99" ry="0.99" width="3" height="2" fill="#4658ac">
    <animate attributeName="opacity" values="1;0" keyTimes="0;1" dur="0.4291845493562232s" begin="-0.025246149962130777s" repeatCount="indefinite"></animate>
  </rect>
</g><g transform="rotate(338.8235294117647 50 50)">
  <rect x="48.5" y="35" rx="0.99" ry="0.99" width="3" height="2" fill="#4658ac">
    <animate attributeName="opacity" values="1;0" keyTimes="0;1" dur="0.4291845493562232s" begin="0s" repeatCount="indefinite"></animate>
  </rect>
</g>
<!-- [ldio] generated by https://loading.io/ --></svg>